# xmcd CD database file
#
# Track frame offsets:
#	182
#	13337
#	25845
#	38350
#	54137
#	66760
#	82265
#	93040
#	106630
#	120237
#	134120
#	150957
#
# Disc length: 2192 seconds
#
# Revision: 0
# Processed by: cddbd v1.4PL0 Copyright (c) Steve Scherf et al.
# Submitted via: CDex 1.40Release
#
DISCID=84088e0c
DTITLE=B.B. King - The Best Of B.B. King
DYEAR=1900
DGENRE=Blues
TTITLE0=Woke Up This Morning
TTITLE1=Everyday I Have The Blues
TTITLE2=Please Love Me
TTITLE3=IT's My Own Fault
TTITLE4=Rock Me Baby
TTITLE5=Ten Long Years
TTITLE6=Treat Me Right
TTITLE7=The Woman I Love
TTITLE8=You Upset Me Baby
TTITLE9=You Know I Love You
TTITLE10=Blue Shadows
TTITLE11=Sweet Little Angel
EXTD=ID3G: 0
EXTT0=
EXTT1=
EXTT2=
EXTT3=
EXTT4=
EXTT5=
EXTT6=
EXTT7=
EXTT8=
EXTT9=
EXTT10=
EXTT11=
PLAYORDER=
